<mxfile host="app.diagrams.net" agent="Mozilla/5.0 (Windows NT 10.0; Win64; x64) AppleWebKit/537.36 (KHTML, like Gecko) Chrome/135.0.0.0 Safari/537.36" version="26.2.15">
  <diagram name="Trang-1" id="U4sdnr5VTXW5NhPvqZwV">
    <mxGraphModel dx="1281" dy="2900" grid="1" gridSize="10" guides="1" tooltips="1" connect="1" arrows="1" fold="1" page="1" pageScale="1" pageWidth="827" pageHeight="1169" math="0" shadow="0">
      <root>
        <mxCell id="0" />
        <mxCell id="1" parent="0" />
        <mxCell id="1uGSdfjilF02yNYWQxw8-8" value="" style="shape=internalStorage;whiteSpace=wrap;html=1;backgroundOutline=1;dx=140;dy=20;" parent="1" vertex="1">
          <mxGeometry x="60" y="-1681.5" width="670" height="831.5" as="geometry" />
        </mxCell>
        <mxCell id="1uGSdfjilF02yNYWQxw8-9" value="" style="endArrow=none;html=1;rounded=0;exitX=0.547;exitY=0.002;exitDx=0;exitDy=0;exitPerimeter=0;entryX=0.545;entryY=0.998;entryDx=0;entryDy=0;entryPerimeter=0;" parent="1" source="1uGSdfjilF02yNYWQxw8-8" target="1uGSdfjilF02yNYWQxw8-8" edge="1">
          <mxGeometry width="50" height="50" relative="1" as="geometry">
            <mxPoint x="390" y="-1410" as="sourcePoint" />
            <mxPoint x="440" y="-1460" as="targetPoint" />
          </mxGeometry>
        </mxCell>
        <mxCell id="1uGSdfjilF02yNYWQxw8-10" value="Nhân viên" style="text;html=1;align=center;verticalAlign=middle;resizable=0;points=[];autosize=1;strokeColor=none;fillColor=none;" parent="1" vertex="1">
          <mxGeometry x="90" y="-1690" width="80" height="30" as="geometry" />
        </mxCell>
        <mxCell id="1uGSdfjilF02yNYWQxw8-11" value="System" style="text;html=1;align=center;verticalAlign=middle;resizable=0;points=[];autosize=1;strokeColor=none;fillColor=none;" parent="1" vertex="1">
          <mxGeometry x="290" y="-1690" width="60" height="30" as="geometry" />
        </mxCell>
        <mxCell id="1uGSdfjilF02yNYWQxw8-12" value="Admin" style="text;html=1;align=center;verticalAlign=middle;resizable=0;points=[];autosize=1;strokeColor=none;fillColor=none;" parent="1" vertex="1">
          <mxGeometry x="570" y="-1690" width="60" height="30" as="geometry" />
        </mxCell>
        <mxCell id="1uGSdfjilF02yNYWQxw8-24" value="Lưu vào DB" style="html=1;align=center;verticalAlign=middle;rounded=1;absoluteArcSize=1;arcSize=10;dashed=0;whiteSpace=wrap;" parent="1" vertex="1">
          <mxGeometry x="270" y="-1600" width="80" height="20" as="geometry" />
        </mxCell>
        <mxCell id="1uGSdfjilF02yNYWQxw8-26" value="Nhận kết quả" style="html=1;align=center;verticalAlign=middle;rounded=1;absoluteArcSize=1;arcSize=10;dashed=0;whiteSpace=wrap;" parent="1" vertex="1">
          <mxGeometry x="85" y="-960" width="80" height="30" as="geometry" />
        </mxCell>
        <mxCell id="1uGSdfjilF02yNYWQxw8-27" value="Cập nhật data" style="html=1;align=center;verticalAlign=middle;rounded=1;absoluteArcSize=1;arcSize=3;dashed=0;whiteSpace=wrap;" parent="1" vertex="1">
          <mxGeometry x="270" y="-1050" width="90" height="30" as="geometry" />
        </mxCell>
        <mxCell id="1uGSdfjilF02yNYWQxw8-28" value="Trừ lương" style="html=1;align=center;verticalAlign=middle;rounded=1;absoluteArcSize=1;arcSize=10;dashed=0;whiteSpace=wrap;" parent="1" vertex="1">
          <mxGeometry x="220" y="-1270" width="70" height="20" as="geometry" />
        </mxCell>
        <mxCell id="1uGSdfjilF02yNYWQxw8-29" value="Kiểm tra ngày nghỉ" style="html=1;align=center;verticalAlign=middle;rounded=1;absoluteArcSize=1;arcSize=10;dashed=0;whiteSpace=wrap;" parent="1" vertex="1">
          <mxGeometry x="270" y="-1519" width="90" height="30" as="geometry" />
        </mxCell>
        <mxCell id="1uGSdfjilF02yNYWQxw8-63" style="edgeStyle=orthogonalEdgeStyle;rounded=0;orthogonalLoop=1;jettySize=auto;html=1;exitX=0.5;exitY=1;exitDx=0;exitDy=0;" parent="1" source="1uGSdfjilF02yNYWQxw8-30" edge="1">
          <mxGeometry relative="1" as="geometry">
            <Array as="points">
              <mxPoint x="685" y="-1030" />
              <mxPoint x="360" y="-1030" />
            </Array>
            <mxPoint x="702.5" y="-1360" as="sourcePoint" />
            <mxPoint x="360" y="-1030" as="targetPoint" />
          </mxGeometry>
        </mxCell>
        <mxCell id="1uGSdfjilF02yNYWQxw8-30" value="Từ chối" style="html=1;align=center;verticalAlign=middle;rounded=1;absoluteArcSize=1;arcSize=10;dashed=0;whiteSpace=wrap;" parent="1" vertex="1">
          <mxGeometry x="650" y="-1400" width="70" height="20" as="geometry" />
        </mxCell>
        <mxCell id="1uGSdfjilF02yNYWQxw8-31" value="Xét duyệt" style="html=1;align=center;verticalAlign=middle;rounded=1;absoluteArcSize=1;arcSize=10;dashed=0;whiteSpace=wrap;" parent="1" vertex="1">
          <mxGeometry x="550" y="-1600" width="66" height="20" as="geometry" />
        </mxCell>
        <mxCell id="1uGSdfjilF02yNYWQxw8-32" value="" style="ellipse;html=1;shape=startState;fillColor=#000000;strokeColor=#ff0000;" parent="1" vertex="1">
          <mxGeometry x="115" y="-1660" width="30" height="30" as="geometry" />
        </mxCell>
        <mxCell id="1uGSdfjilF02yNYWQxw8-33" value="" style="edgeStyle=orthogonalEdgeStyle;html=1;verticalAlign=bottom;endArrow=open;endSize=8;strokeColor=#ff0000;rounded=0;entryX=0.5;entryY=0;entryDx=0;entryDy=0;" parent="1" source="1uGSdfjilF02yNYWQxw8-32" edge="1" target="1uGSdfjilF02yNYWQxw8-50">
          <mxGeometry relative="1" as="geometry">
            <mxPoint x="140" y="-1600" as="targetPoint" />
          </mxGeometry>
        </mxCell>
        <mxCell id="1uGSdfjilF02yNYWQxw8-38" value="" style="fontStyle=1;align=center;verticalAlign=middle;childLayout=stackLayout;horizontal=1;horizontalStack=0;resizeParent=1;resizeParentMax=0;resizeLast=0;marginBottom=0;" parent="1" vertex="1">
          <mxGeometry x="80" y="-1530" width="100" height="52" as="geometry" />
        </mxCell>
        <mxCell id="1uGSdfjilF02yNYWQxw8-39" value="Đơn xin nghỉ" style="html=1;align=center;spacing=0;verticalAlign=middle;strokeColor=none;fillColor=none;whiteSpace=wrap;" parent="1uGSdfjilF02yNYWQxw8-38" vertex="1">
          <mxGeometry width="100" height="20" as="geometry" />
        </mxCell>
        <mxCell id="1uGSdfjilF02yNYWQxw8-40" value="" style="line;strokeWidth=0.25;fillColor=none;align=left;verticalAlign=middle;spacingTop=-1;spacingLeft=3;spacingRight=3;rotatable=0;labelPosition=right;points=[];portConstraint=eastwest;" parent="1uGSdfjilF02yNYWQxw8-38" vertex="1">
          <mxGeometry y="20" width="100" height="8" as="geometry" />
        </mxCell>
        <mxCell id="1uGSdfjilF02yNYWQxw8-41" value="{Chờ duyệt}" style="html=1;align=center;spacing=0;verticalAlign=middle;strokeColor=none;fillColor=none;whiteSpace=wrap;" parent="1uGSdfjilF02yNYWQxw8-38" vertex="1">
          <mxGeometry y="28" width="100" height="14" as="geometry" />
        </mxCell>
        <mxCell id="1uGSdfjilF02yNYWQxw8-44" value="" style="html=1;align=left;spacing=0;spacingLeft=10;verticalAlign=middle;strokeColor=none;fillColor=none;whiteSpace=wrap;" parent="1uGSdfjilF02yNYWQxw8-38" vertex="1">
          <mxGeometry y="42" width="100" height="10" as="geometry" />
        </mxCell>
        <mxCell id="1uGSdfjilF02yNYWQxw8-46" value="" style="endArrow=block;dashed=1;endFill=0;endSize=12;html=1;rounded=0;exitX=0.427;exitY=0.91;exitDx=0;exitDy=0;exitPerimeter=0;" parent="1" edge="1">
          <mxGeometry width="160" relative="1" as="geometry">
            <mxPoint x="133.43000000000006" y="-1581.8" as="sourcePoint" />
            <mxPoint x="120" y="-1530" as="targetPoint" />
          </mxGeometry>
        </mxCell>
        <mxCell id="1uGSdfjilF02yNYWQxw8-50" value="Điền đơn" style="html=1;align=center;verticalAlign=middle;rounded=1;absoluteArcSize=1;arcSize=10;dashed=0;whiteSpace=wrap;" parent="1" vertex="1">
          <mxGeometry x="90" y="-1600" width="80" height="20" as="geometry" />
        </mxCell>
        <mxCell id="1uGSdfjilF02yNYWQxw8-51" style="edgeStyle=orthogonalEdgeStyle;rounded=0;orthogonalLoop=1;jettySize=auto;html=1;exitX=1;exitY=0.5;exitDx=0;exitDy=0;entryX=0;entryY=0.5;entryDx=0;entryDy=0;" parent="1" source="1uGSdfjilF02yNYWQxw8-50" target="1uGSdfjilF02yNYWQxw8-24" edge="1">
          <mxGeometry relative="1" as="geometry">
            <mxPoint x="190" y="-1590.5" as="sourcePoint" />
            <mxPoint x="310" y="-1692.5" as="targetPoint" />
          </mxGeometry>
        </mxCell>
        <mxCell id="1uGSdfjilF02yNYWQxw8-53" style="edgeStyle=orthogonalEdgeStyle;rounded=0;orthogonalLoop=1;jettySize=auto;html=1;exitX=1;exitY=0.5;exitDx=0;exitDy=0;entryX=0;entryY=0.5;entryDx=0;entryDy=0;" parent="1" source="1uGSdfjilF02yNYWQxw8-24" target="1uGSdfjilF02yNYWQxw8-31" edge="1">
          <mxGeometry relative="1" as="geometry">
            <mxPoint x="360" y="-1581" as="sourcePoint" />
            <mxPoint x="440" y="-1581" as="targetPoint" />
          </mxGeometry>
        </mxCell>
        <mxCell id="1uGSdfjilF02yNYWQxw8-54" value="" style="shape=rhombus;html=1;verticalLabelPosition=top;verticalAlignment=bottom;" parent="1" vertex="1">
          <mxGeometry x="561.5" y="-1524" width="43" height="40" as="geometry" />
        </mxCell>
        <mxCell id="1uGSdfjilF02yNYWQxw8-66" value="" style="shape=rhombus;html=1;verticalLabelPosition=bottom;verticalAlignment=top;" parent="1" vertex="1">
          <mxGeometry x="295" y="-1340" width="40" height="40" as="geometry" />
        </mxCell>
        <mxCell id="v_XkFmHCialB_GGA8V8C-3" value="" style="html=1;points=[];perimeter=orthogonalPerimeter;fillColor=strokeColor;direction=south;" vertex="1" parent="1">
          <mxGeometry x="230" y="-1190" width="170" height="5" as="geometry" />
        </mxCell>
        <mxCell id="v_XkFmHCialB_GGA8V8C-7" style="edgeStyle=orthogonalEdgeStyle;rounded=0;orthogonalLoop=1;jettySize=auto;html=1;entryX=0.5;entryY=0;entryDx=0;entryDy=0;exitX=0.5;exitY=1;exitDx=0;exitDy=0;" edge="1" parent="1" source="1uGSdfjilF02yNYWQxw8-31" target="1uGSdfjilF02yNYWQxw8-54">
          <mxGeometry relative="1" as="geometry">
            <mxPoint x="360" y="-1580" as="sourcePoint" />
            <mxPoint x="560" y="-1580" as="targetPoint" />
          </mxGeometry>
        </mxCell>
        <mxCell id="v_XkFmHCialB_GGA8V8C-8" style="edgeStyle=orthogonalEdgeStyle;rounded=0;orthogonalLoop=1;jettySize=auto;html=1;exitX=0;exitY=0.5;exitDx=0;exitDy=0;entryX=1;entryY=0.5;entryDx=0;entryDy=0;" edge="1" parent="1" source="1uGSdfjilF02yNYWQxw8-54" target="1uGSdfjilF02yNYWQxw8-29">
          <mxGeometry relative="1" as="geometry">
            <mxPoint x="360" y="-1580" as="sourcePoint" />
            <mxPoint x="560" y="-1580" as="targetPoint" />
          </mxGeometry>
        </mxCell>
        <mxCell id="v_XkFmHCialB_GGA8V8C-9" style="edgeStyle=orthogonalEdgeStyle;rounded=0;orthogonalLoop=1;jettySize=auto;html=1;exitX=1;exitY=0.5;exitDx=0;exitDy=0;entryX=0.5;entryY=0;entryDx=0;entryDy=0;" edge="1" parent="1" source="1uGSdfjilF02yNYWQxw8-54" target="1uGSdfjilF02yNYWQxw8-30">
          <mxGeometry relative="1" as="geometry">
            <mxPoint x="572" y="-1494" as="sourcePoint" />
            <mxPoint x="370" y="-1494" as="targetPoint" />
            <Array as="points">
              <mxPoint x="685" y="-1504" />
            </Array>
          </mxGeometry>
        </mxCell>
        <mxCell id="v_XkFmHCialB_GGA8V8C-10" style="edgeStyle=orthogonalEdgeStyle;rounded=0;orthogonalLoop=1;jettySize=auto;html=1;exitX=0.5;exitY=1;exitDx=0;exitDy=0;entryX=0.5;entryY=0;entryDx=0;entryDy=0;" edge="1" parent="1" source="1uGSdfjilF02yNYWQxw8-29" target="1uGSdfjilF02yNYWQxw8-66">
          <mxGeometry relative="1" as="geometry">
            <mxPoint x="572" y="-1494" as="sourcePoint" />
            <mxPoint x="370" y="-1494" as="targetPoint" />
          </mxGeometry>
        </mxCell>
        <mxCell id="v_XkFmHCialB_GGA8V8C-11" style="edgeStyle=orthogonalEdgeStyle;rounded=0;orthogonalLoop=1;jettySize=auto;html=1;exitX=0;exitY=0.5;exitDx=0;exitDy=0;entryX=0.5;entryY=0;entryDx=0;entryDy=0;" edge="1" parent="1" source="1uGSdfjilF02yNYWQxw8-66" target="1uGSdfjilF02yNYWQxw8-28">
          <mxGeometry relative="1" as="geometry">
            <mxPoint x="325" y="-1479" as="sourcePoint" />
            <mxPoint x="325" y="-1330" as="targetPoint" />
          </mxGeometry>
        </mxCell>
        <mxCell id="v_XkFmHCialB_GGA8V8C-18" style="edgeStyle=orthogonalEdgeStyle;rounded=0;orthogonalLoop=1;jettySize=auto;html=1;exitX=1;exitY=0.5;exitDx=0;exitDy=0;" edge="1" parent="1">
          <mxGeometry relative="1" as="geometry">
            <mxPoint x="335" y="-1320" as="sourcePoint" />
            <mxPoint x="380" y="-1187" as="targetPoint" />
            <Array as="points">
              <mxPoint x="380" y="-1320" />
            </Array>
          </mxGeometry>
        </mxCell>
        <mxCell id="v_XkFmHCialB_GGA8V8C-20" style="edgeStyle=orthogonalEdgeStyle;rounded=0;orthogonalLoop=1;jettySize=auto;html=1;entryX=0.52;entryY=0.853;entryDx=0;entryDy=0;exitX=0.5;exitY=1;exitDx=0;exitDy=0;entryPerimeter=0;" edge="1" parent="1" source="1uGSdfjilF02yNYWQxw8-28" target="v_XkFmHCialB_GGA8V8C-3">
          <mxGeometry relative="1" as="geometry">
            <mxPoint x="413" y="-1270" as="sourcePoint" />
            <mxPoint x="413" y="-1190" as="targetPoint" />
          </mxGeometry>
        </mxCell>
        <mxCell id="v_XkFmHCialB_GGA8V8C-21" style="edgeStyle=orthogonalEdgeStyle;rounded=0;orthogonalLoop=1;jettySize=auto;html=1;entryX=0.5;entryY=0;entryDx=0;entryDy=0;" edge="1" parent="1" target="1uGSdfjilF02yNYWQxw8-27">
          <mxGeometry relative="1" as="geometry">
            <mxPoint x="314.5" y="-1185" as="sourcePoint" />
            <mxPoint x="314.5" y="-1070.5" as="targetPoint" />
          </mxGeometry>
        </mxCell>
        <mxCell id="v_XkFmHCialB_GGA8V8C-23" value="" style="fontStyle=1;align=center;verticalAlign=middle;childLayout=stackLayout;horizontal=1;horizontalStack=0;resizeParent=1;resizeParentMax=0;resizeLast=0;marginBottom=0;" vertex="1" parent="1">
          <mxGeometry x="500" y="-1300" width="100" height="52" as="geometry" />
        </mxCell>
        <mxCell id="v_XkFmHCialB_GGA8V8C-24" value="Đơn xin nghỉ" style="html=1;align=center;spacing=0;verticalAlign=middle;strokeColor=none;fillColor=none;whiteSpace=wrap;" vertex="1" parent="v_XkFmHCialB_GGA8V8C-23">
          <mxGeometry width="100" height="20" as="geometry" />
        </mxCell>
        <mxCell id="v_XkFmHCialB_GGA8V8C-25" value="" style="line;strokeWidth=0.25;fillColor=none;align=left;verticalAlign=middle;spacingTop=-1;spacingLeft=3;spacingRight=3;rotatable=0;labelPosition=right;points=[];portConstraint=eastwest;" vertex="1" parent="v_XkFmHCialB_GGA8V8C-23">
          <mxGeometry y="20" width="100" height="8" as="geometry" />
        </mxCell>
        <mxCell id="v_XkFmHCialB_GGA8V8C-26" value="{Từ chối}" style="html=1;align=center;spacing=0;verticalAlign=middle;strokeColor=none;fillColor=none;whiteSpace=wrap;" vertex="1" parent="v_XkFmHCialB_GGA8V8C-23">
          <mxGeometry y="28" width="100" height="14" as="geometry" />
        </mxCell>
        <mxCell id="v_XkFmHCialB_GGA8V8C-27" value="" style="html=1;align=left;spacing=0;spacingLeft=10;verticalAlign=middle;strokeColor=none;fillColor=none;whiteSpace=wrap;" vertex="1" parent="v_XkFmHCialB_GGA8V8C-23">
          <mxGeometry y="42" width="100" height="10" as="geometry" />
        </mxCell>
        <mxCell id="v_XkFmHCialB_GGA8V8C-28" value="" style="endArrow=block;dashed=1;endFill=0;endSize=12;html=1;rounded=0;exitX=0;exitY=1;exitDx=0;exitDy=0;entryX=1;entryY=0.25;entryDx=0;entryDy=0;" edge="1" parent="1" source="1uGSdfjilF02yNYWQxw8-30" target="v_XkFmHCialB_GGA8V8C-24">
          <mxGeometry width="160" relative="1" as="geometry">
            <mxPoint x="143.43000000000006" y="-1571.8" as="sourcePoint" />
            <mxPoint x="130" y="-1520" as="targetPoint" />
          </mxGeometry>
        </mxCell>
        <mxCell id="v_XkFmHCialB_GGA8V8C-31" value="" style="fontStyle=1;align=center;verticalAlign=middle;childLayout=stackLayout;horizontal=1;horizontalStack=0;resizeParent=1;resizeParentMax=0;resizeLast=0;marginBottom=0;" vertex="1" parent="1">
          <mxGeometry x="75" y="-1180" width="100" height="52" as="geometry" />
        </mxCell>
        <mxCell id="v_XkFmHCialB_GGA8V8C-32" value="Đơn xin nghỉ" style="html=1;align=center;spacing=0;verticalAlign=middle;strokeColor=none;fillColor=none;whiteSpace=wrap;" vertex="1" parent="v_XkFmHCialB_GGA8V8C-31">
          <mxGeometry width="100" height="20" as="geometry" />
        </mxCell>
        <mxCell id="v_XkFmHCialB_GGA8V8C-33" value="" style="line;strokeWidth=0.25;fillColor=none;align=left;verticalAlign=middle;spacingTop=-1;spacingLeft=3;spacingRight=3;rotatable=0;labelPosition=right;points=[];portConstraint=eastwest;" vertex="1" parent="v_XkFmHCialB_GGA8V8C-31">
          <mxGeometry y="20" width="100" height="8" as="geometry" />
        </mxCell>
        <mxCell id="v_XkFmHCialB_GGA8V8C-34" value="{ Đã duyệt}" style="html=1;align=center;spacing=0;verticalAlign=middle;strokeColor=none;fillColor=none;whiteSpace=wrap;" vertex="1" parent="v_XkFmHCialB_GGA8V8C-31">
          <mxGeometry y="28" width="100" height="14" as="geometry" />
        </mxCell>
        <mxCell id="v_XkFmHCialB_GGA8V8C-35" value="" style="html=1;align=left;spacing=0;spacingLeft=10;verticalAlign=middle;strokeColor=none;fillColor=none;whiteSpace=wrap;" vertex="1" parent="v_XkFmHCialB_GGA8V8C-31">
          <mxGeometry y="42" width="100" height="10" as="geometry" />
        </mxCell>
        <mxCell id="v_XkFmHCialB_GGA8V8C-36" value="" style="endArrow=block;dashed=1;endFill=0;endSize=12;html=1;rounded=0;exitX=0;exitY=0.5;exitDx=0;exitDy=0;entryX=1;entryY=0;entryDx=0;entryDy=0;" edge="1" parent="1" source="1uGSdfjilF02yNYWQxw8-27" target="v_XkFmHCialB_GGA8V8C-34">
          <mxGeometry width="160" relative="1" as="geometry">
            <mxPoint x="143.43000000000006" y="-1571.8" as="sourcePoint" />
            <mxPoint x="130" y="-1520" as="targetPoint" />
          </mxGeometry>
        </mxCell>
        <mxCell id="v_XkFmHCialB_GGA8V8C-38" style="edgeStyle=orthogonalEdgeStyle;rounded=0;orthogonalLoop=1;jettySize=auto;html=1;entryX=1;entryY=0.5;entryDx=0;entryDy=0;exitX=0.5;exitY=1;exitDx=0;exitDy=0;" edge="1" parent="1" source="1uGSdfjilF02yNYWQxw8-27" target="1uGSdfjilF02yNYWQxw8-26">
          <mxGeometry relative="1" as="geometry">
            <mxPoint x="324.5" y="-1175" as="sourcePoint" />
            <mxPoint x="325" y="-1040" as="targetPoint" />
          </mxGeometry>
        </mxCell>
        <mxCell id="v_XkFmHCialB_GGA8V8C-39" value="[No]" style="text;html=1;align=center;verticalAlign=middle;resizable=0;points=[];autosize=1;strokeColor=none;fillColor=none;" vertex="1" parent="1">
          <mxGeometry x="616" y="-1508" width="50" height="30" as="geometry" />
        </mxCell>
        <mxCell id="v_XkFmHCialB_GGA8V8C-41" value="[Yes]" style="text;html=1;align=center;verticalAlign=middle;resizable=0;points=[];autosize=1;strokeColor=none;fillColor=none;" vertex="1" parent="1">
          <mxGeometry x="470" y="-1508" width="50" height="30" as="geometry" />
        </mxCell>
        <mxCell id="v_XkFmHCialB_GGA8V8C-42" value="[Yes]" style="text;html=1;align=center;verticalAlign=middle;resizable=0;points=[];autosize=1;strokeColor=none;fillColor=none;" vertex="1" parent="1">
          <mxGeometry x="335" y="-1320" width="50" height="30" as="geometry" />
        </mxCell>
        <mxCell id="v_XkFmHCialB_GGA8V8C-43" value="[No]" style="text;html=1;align=center;verticalAlign=middle;resizable=0;points=[];autosize=1;strokeColor=none;fillColor=none;" vertex="1" parent="1">
          <mxGeometry x="250" y="-1320" width="50" height="30" as="geometry" />
        </mxCell>
        <mxCell id="v_XkFmHCialB_GGA8V8C-44" value="" style="ellipse;html=1;shape=endState;fillColor=#000000;strokeColor=#ff0000;" vertex="1" parent="1">
          <mxGeometry x="110" y="-896.5" width="30" height="30" as="geometry" />
        </mxCell>
        <mxCell id="v_XkFmHCialB_GGA8V8C-45" style="edgeStyle=orthogonalEdgeStyle;rounded=0;orthogonalLoop=1;jettySize=auto;html=1;entryX=0.5;entryY=0;entryDx=0;entryDy=0;exitX=0.5;exitY=1;exitDx=0;exitDy=0;" edge="1" parent="1" source="v_XkFmHCialB_GGA8V8C-35" target="1uGSdfjilF02yNYWQxw8-26">
          <mxGeometry relative="1" as="geometry">
            <mxPoint x="265" y="-1240" as="sourcePoint" />
            <mxPoint x="265" y="-1177" as="targetPoint" />
          </mxGeometry>
        </mxCell>
        <mxCell id="v_XkFmHCialB_GGA8V8C-46" style="edgeStyle=orthogonalEdgeStyle;rounded=0;orthogonalLoop=1;jettySize=auto;html=1;entryX=0.5;entryY=0;entryDx=0;entryDy=0;exitX=0.5;exitY=1;exitDx=0;exitDy=0;" edge="1" parent="1" source="1uGSdfjilF02yNYWQxw8-26" target="v_XkFmHCialB_GGA8V8C-44">
          <mxGeometry relative="1" as="geometry">
            <mxPoint x="265" y="-1240" as="sourcePoint" />
            <mxPoint x="265" y="-1177" as="targetPoint" />
          </mxGeometry>
        </mxCell>
      </root>
    </mxGraphModel>
  </diagram>
</mxfile>
